<svg
  xmlns="http://www.w3.org/2000/svg"
  viewBox="0 0 512 512"
  width="512"
  height="512"
>
  <!-- Main B shape -->
  <path
    d="
      M170 110
      H290
      C360 110 400 145 400 200
      C400 245 370 275 330 285
      C380 295 420 330 420 385
      C420 445 365 480 290 480
      H170
      Z

      M235 170
      V255
      H285
      C315 255 335 240 335 215
      C335 190 315 170 285 170
      Z

      M235 315
      V420
      H295
      C330 420 350 400 350 370
      C350 340 330 315 295 315
      Z
    "
    fill="currentColor"
  />

  <!-- Diagonal engineering cut -->
  <polygon
    points="260,110 340,110 220,250 180,250"
    fill="white"
  />
</svg>
